<?xml version="1.0" standalone="no"?>
<!DOCTYPE svg PUBLIC "-//W3C//DTD SVG 20010904//EN"
 "http://www.w3.org/TR/2001/REC-SVG-20010904/DTD/svg10.dtd">
<svg version="1.0" xmlns="http://www.w3.org/2000/svg"
 width="260.000000pt" height="260.000000pt" viewBox="0 0 260.000000 260.000000"
 preserveAspectRatio="xMidYMid meet">
<metadata>
Created by potrace 1.14, written by Peter Selinger 2001-2017
</metadata>
<g transform="translate(0.000000,260.000000) scale(0.100000,-0.100000)"
fill="#000000" stroke="none">
<path d="M693 2205 c0 -8 4 -15 9 -15 4 0 8 4 8 9 0 6 -4 12 -8 15 -5 3 -9 -1
-9 -9z"/>
<path d="M861 2200 c-12 -11 -27 -18 -31 -15 -5 3 -11 0 -13 -5 -3 -6 -4 -5
-2 2 1 7 9 12 16 10 8 -2 10 0 6 5 -13 12 -58 11 -47 -2 5 -6 0 -11 -16 -11
-13 -1 -24 2 -24 8 0 5 5 6 10 3 6 -3 10 -2 10 4 0 5 -9 9 -20 8 -12 -1 -18
-7 -16 -14 3 -8 -1 -10 -11 -6 -11 5 -14 3 -8 -6 6 -10 3 -11 -12 -2 -11 6
-23 7 -27 3 -4 -3 -4 1 -1 9 4 10 0 16 -9 16 -8 0 -13 -4 -10 -9 3 -4 1 -8 -5
-8 -5 0 -12 6 -14 13 -3 7 -6 5 -6 -6 -1 -15 -4 -16 -23 -6 -18 9 -20 9 -15
-4 4 -12 1 -15 -15 -12 -11 3 -18 2 -14 -2 3 -3 1 -12 -5 -20 -6 -7 -8 -13 -4
-13 4 0 2 -7 -5 -15 -8 -9 -8 -15 -2 -15 6 0 12 6 15 13 3 9 8 9 18 -2 8 -8 9
-11 3 -8 -10 6 -19 -9 -29 -51 -2 -6 1 -10 6 -6 5 3 9 -4 9 -15 0 -10 -3 -21
-7 -24 -5 -2 -2 -2 5 0 7 1 11 -1 7 -6 -3 -5 1 -12 7 -15 7 -4 4 -5 -8 -2 -12
2 -21 -2 -21 -10 0 -7 4 -11 9 -8 4 3 8 -1 8 -10 0 -8 6 -17 13 -20 6 -3 1 -3
-13 0 -23 5 -23 4 -8 -9 14 -11 15 -16 5 -27 -7 -7 -7 -10 -1 -7 6 3 11 0 11
-8 0 -8 -5 -11 -10 -8 -7 4 -7 -1 -2 -13 4 -10 8 -30 8 -44 0 -14 5 -28 11
-32 7 -5 4 -8 -6 -8 -9 0 -20 -5 -24 -12 -4 -6 -3 -8 3 -5 6 4 14 0 17 -9 4
-11 2 -15 -8 -11 -10 4 -13 1 -9 -8 3 -8 9 -13 13 -10 5 3 12 0 16 -6 4 -8 3
-9 -4 -5 -7 4 -12 3 -12 -3 0 -5 6 -12 13 -15 6 -3 1 -3 -13 0 -23 5 -23 4 -8
-9 14 -11 15 -16 5 -27 -9 -10 -9 -11 0 -6 8 4 11 0 8 -14 -2 -11 0 -22 5 -25
5 -3 1 -20 -8 -38 -19 -37 -24 -59 -12 -52 4 3 10 -2 14 -10 5 -14 -5 -20 -27
-16 -5 1 -5 -3 -2 -9 4 -6 13 -9 21 -6 7 3 16 0 20 -6 4 -7 3 -8 -4 -4 -7 4
-12 3 -12 -3 0 -5 6 -12 13 -15 6 -3 1 -3 -13 0 -23 5 -23 4 -8 -9 14 -11 15
-16 5 -27 -7 -7 -7 -10 -1 -7 6 3 11 0 11 -8 0 -8 -5 -11 -10 -8 -7 4 -7 -1
-2 -13 4 -10 8 -30 8 -44 0 -14 5 -28 11 -32 7 -5 4 -8 -6 -8 -9 0 -20 -5 -24
-12 -4 -6 -3 -8 3 -5 6 4 14 0 17 -9 4 -11 2 -15 -8 -11 -10 4 -13 1 -9 -8 3
-8 9 -13 13 -10 5 3 12 0 16 -6 4 -8 3 -9 -4 -5 -7 4 -12 3 -12 -3 0 -5 6 -12
13 -15 6 -3 1 -3 -13 0 -23 5 -23 4 -8 -9 14 -11 15 -16 5 -27 -9 -10 -9 -11
0 -6 8 4 11 0 8 -14 -2 -11 0 -22 5 -25 5 -3 1 -20 -8 -38 -19 -37 -24 -59
-12 -52 4 3 10 -2 14 -10 5 -14 -5 -20 -27 -16 -5 1 -5 -3 -2 -9 4 -6 13 -9
21 -6 7 3 16 0 20 -6 4 -7 3 -8 -4 -4 -7 4 -12 3 -12 -3 0 -5 6 -12 13 -15 6
-3 1 -3 -13 0 -23 5 -23 4 -8 -9 14 -11 15 -16 5 -27 -7 -7 -7 -10 -1 -7 6 3
11 0 11 -8 0 -8 -5 -11 -10 -8 -7 4 -7 -1 -2 -13 4 -10 8 -30 8 -44 0 -14 5
-28 11 -32 7 -5 4 -8 -6 -8 -9 0 -20 -5 -24 -12 -4 -6 -3 -8 3 -5 6 4 14 0 17
-9 4 -11 2 -15 -8 -11 -10 4 -13 1 -9 -8 3 -8 9 -13 13 -10 5 3 12 0 16 -6 4
-8 3 -9 -4 -5 -7 4 -12 3 -12 -3 0 -5 6 -12 13 -15 6 -3 1 -3 -13 0 -23 5 -23
4 -8 -9 14 -11 15 -16 5 -27 -7 -7 -7 -10 -1 -7 6 3 11 0 11 -8 0 -8 -4 -12
-9 -9 -4 3 -8 -2 -8 -11 0 -10 5 -13 13 -9 7 5 6 1 -3 -10 -16 -21 -23 -49 -9
-40 14 8 11 -30 -3 -45 -10 -11 -10 -13 -1 -7 8 5 13 1 13 -9 0 -9 -4 -14 -8
-11 -4 2 -8 -6 -8 -19 0 -13 4 -21 8 -19 4 3 8 0 8 -5 0 -6 9 -11 20 -11 11 0
20 5 20 11 0 5 5 7 10 4 15 -9 12 -27 -2 -19 -7 4 -9 3 -5 -1 13 -14 37 -14
37 0 0 7 8 16 18 20 14 5 15 4 5 -6 -17 -17 -16 -26 2 -26 8 0 12 4 9 9 -3 4
2 8 11 8 9 0 14 -4 11 -9 -4 -5 3 -7 15 -4 11 3 23 12 26 20 4 11 8 10 18 -3
15 -21 55 -26 62 -7 8 20 23 16 17 -4 -5 -14 -4 -15 4 -4 7 10 14 11 31 2 17
-10 22 -9 27 4 8 21 25 19 18 -2 -5 -14 -4 -15 4 -4 11 16 36 5 26 -11 -5 -7
-2 -8 5 -4 7 5 10 14 7 22 -3 8 0 11 9 7 8 -3 13 -9 10 -13 -11 -18 31 -3 43
15 10 15 12 16 8 3 -3 -10 -1 -20 4 -23 6 -4 10 0 10 8 0 8 8 18 18 22 14 5
15 4 5 -6 -17 -17 -16 -26 2 -26 8 0 12 4 9 9 -3 4 2 8 11 8 9 0 13 -4 10 -10
-3 -6 1 -7 10 -4 13 5 13 9 3 23 -11 14 -11 14 3 3 18 -14 90 -12 102 3 5 6 7
3 3 -7 -3 -10 -1 -18 5 -18 6 0 7 -6 3 -12 -6 -10 -5 -10 8 -1 8 7 19 9 23 5
5 -4 6 0 2 9 -4 13 1 16 23 14 15 -1 33 -6 41 -10 9 -6 11 -4 6 8 -3 10 -2 17
3 17 9 0 15 -22 11 -43 -1 -5 3 -6 9 -2 6 3 8 11 5 16 -9 13 9 11 24 -3 9 -8
11 -8 8 -2 -4 7 0 15 9 18 12 5 15 2 10 -11 -6 -14 -4 -15 4 -7 9 9 9 17 0 33
-8 17 -8 21 2 19 7 -2 12 2 11 9 -1 6 5 10 15 9 9 -2 15 -7 12 -12 -3 -5 -9
-8 -13 -6 -5 1 -5 -3 -1 -9 5 -8 3 -9 -7 -4 -8 5 -3 -4 10 -18 14 -15 27 -27
29 -27 3 0 -3 9 -13 20 -16 18 -14 25 8 21 5 -1 5 4 1 10 -5 8 -2 10 8 7 8 -4
15 0 15 8 0 7 -4 11 -8 9 -3 -3 -12 2 -18 9 -10 12 -9 14 5 12 9 -1 22 -10 29
-20 11 -15 13 -15 19 -1 3 9 2 13 -4 10 -6 -3 -10 -1 -10 4 0 14 17 14 25 2 8
-14 42 -9 42 6 0 10 -4 10 -14 1 -7 -6 -16 -8 -20 -4 -3 3 -1 6 6 6 7 0 9 5 6
10 -4 6 -3 10 2 9 15 -4 68 14 76 25 5 8 10 6 17 -4 7 -12 9 -10 7 7 -1 21 -3
22 -24 8 -25 -17 -31 -11 -10 8 14 14 31 19 68 22 43 3 53 14 32 38 -12 13
-13 17 -3 12 8 -5 23 -11 33 -12 15 -3 16 -1 5 11 -7 8 -17 11 -22 8 -5 -3 -6
0 -2 6 5 9 13 9 26 2 25 -13 30 -13 30 4 0 8 3 16 8 19 4 2 1 2 -5 1 -17 -4
-16 11 2 29 8 8 11 18 7 23 -4 5 0 3 10 -4 14 -11 16 -9 14 17 -1 16 1 28 5
25 4 -2 10 2 13 8 3 7 3 -3 0 -22 -3 -23 -1 -30 5 -21 5 7 8 26 7 42 -2 22 1
26 10 18 10 -8 11 -4 4 20 -6 21 -5 30 3 28 6 -1 12 4 13 11 1 6 2 16 3 22 0
5 14 8 31 6 26 -3 28 -1 19 15 -5 11 -7 20 -4 20 3 1 9 2 14 3 5 0 12 4 15 9
3 4 3 5 -1 2 -3 -3 -12 0 -20 7 -11 9 -13 8 -11 -2 2 -7 -4 -15 -12 -17 -12
-4 -12 -3 -2 5 8 5 13 12 13 16 -3 19 1 28 21 48 16 16 17 20 5 15 -9 -3 -17
-2 -17 3 0 6 5 10 10 10 6 0 10 5 10 11 0 5 -4 8 -8 5 -7 -4 -8 17 -3 56 1 4
8 5 16 2 8 -4 12 -11 8 -17 -3 -6 -1 -7 5 -3 15 9 4 36 -14 36 -19 0 -18 13 6
43 27 34 25 45 -2 21 l-23 -19 19 22 c16 19 22 21 35 11 9 -7 13 -8 9 -4 -4 5
-3 14 2 21 7 8 5 12 -5 12 -8 0 -12 -3 -11 -6 2 -3 -8 -7 -22 -7 -15 -1 -21 1
-14 3 6 3 10 8 7 13 -3 4 1 8 8 7 6 0 21 1 31 1 20 2 20 2 0 17 -10 8 -15 15
-11 15 4 0 2 10 -5 23 -7 12 -11 26 -10 31 2 5 -4 6 -13 2 -10 -3 -14 -2 -10
5 4 6 13 8 21 5 20 -7 17 4 -3 20 -16 12 -15 12 7 7 l25 -5 -25 23 c-14 13
-20 20 -13 16 6 -5 18 -5 24 -1 8 4 9 3 5 -4 -4 -7 -2 -12 3 -12 14 0 14 17 1
25 -5 3 -7 12 -4 20 4 8 11 12 18 8 7 -4 7 -2 -1 8 -10 12 -10 18 0 29 6 8 3
7 -9 -3 -13 -11 -20 -27 -18 -42 1 -15 -2 -23 -8 -19 -5 3 -7 12 -4 20 3 7 -1
20 -9 28 -17 16 -20 30 -6 22 5 -4 11 -3 14 1 2 5 2 1 0 -7 -3 -11 -1 -12 8
-3 13 13 2 36 -13 27 -7 -5 -9 -1 -5 9 4 10 2 17 -4 17 -6 0 -9 9 -6 20 3 13
0 20 -10 20 -8 0 -12 4 -8 10 3 5 13 7 23 4 9 -3 2 4 -15 16 -18 12 -33 24
-33 26 0 3 15 -3 33 -11 31 -16 31 -15 12 2 -23 21 -34 60 -13 47 11 -6 11 -5
0 8 -10 13 -10 17 0 21 8 3 1 9 -15 16 -16 6 -26 15 -23 19 2 4 0 14 -6 22 -8
12 -9 12 -4 -2 8 -26 -17 -22 -33 5 -12 19 -12 20 0 10 12 -10 17 -8 29 10 12
20 12 21 -3 8 -12 -9 -17 -10 -17 -2 0 7 -4 9 -10 6 -5 -3 -10 1 -10 9 0 10 6
13 18 9 18 -7 17 -5 -12 17 -13 10 -17 10 -12 3 4 -8 2 -13 -5 -13 -6 0 -9 8
-6 20 5 18 -3 25 -26 21 -4 -1 -6 9 -3 22 3 17 -1 23 -15 24 -10 1 -19 -3 -19
-8 0 -6 4 -8 9 -4 5 3 12 1 15 -4 4 -5 -2 -8 -11 -6 -10 1 -17 10 -17 19 1 10
-6 16 -18 16 -10 0 -18 6 -17 13 3 28 -2 36 -18 30 -15 -6 -15 -7 3 -15 18 -8
18 -8 -1 -5 -11 2 -19 9 -17 15 1 7 -9 18 -23 24 -14 6 -25 16 -25 22 0 6 4 6
11 -1 6 -6 18 -9 27 -6 10 4 13 2 8 -5 -3 -6 -2 -13 3 -16 20 -12 21 13 1 27
-11 7 -18 17 -15 20 3 4 0 3 -6 -2 -15 -12 -41 -2 -32 13 3 6 1 6 -8 -1 -18
-18 -34 -16 -19 2 14 17 1 21 -18 5 -6 -6 -10 -7 -7 -3 3 3 -3 15 -12 26 -10
11 -13 18 -7 14 6 -3 11 0 11 7 0 9 -6 10 -23 2 -12 -6 -20 -15 -16 -21 3 -5
-1 -4 -10 2 -8 7 -19 9 -23 5 -5 -4 -5 -2 -1 5 4 7 -2 17 -14 23 -11 6 -17 16
-14 22 4 7 3 8 -4 4 -7 -4 -12 -3 -12 3 0 5 8 11 18 13 14 3 14 5 -4 9 -17 5
-20 2 -20 -22 0 -16 3 -29 8 -29 4 0 8 -5 8 -10 0 -6 -11 -3 -24 7 -13 10 -21
20 -16 23 9 7 9 40 -1 34 -4 -2 -10 0 -14 6 -4 6 -12 7 -18 3 -6 -4 -31 -6
-56 -4 -42 3 -44 2 -31 -16 14 -17 13 -17 -5 -2 -11 8 -34 15 -51 15 -24 -1
-30 3 -26 14 5 13 4 13 -12 1 -15 -13 -19 -13 -27 0 -7 12 -9 11 -9 -2 0 -16
-17 -18 -60 -8 -8 2 -14 -2 -12 -9 2 -10 -2 -10 -17 -3 -10 6 -21 7 -25 3 -4
-3 -4 2 0 13 7 18 6 18 -9 7 -9 -8 -21 -11 -27 -7 -5 3 -10 2 -10 -3 0 -5 -12
-7 -27 -5 -16 3 -40 5 -55 6 -14 0 -25 5 -24 11 2 6 1 8 -1 3 -3 -4 -9 -5 -14
-2 -5 4 -6 0 -4 -7 4 -9 -2 -14 -14 -14 -16 0 -18 4 -10 18 12 22 10 22 -20
-2z m569 -25 c11 -13 10 -14 -5 -9 -13 5 -16 4 -11 -4 5 -8 2 -10 -8 -6 -12 5
-13 9 -3 20 15 17 12 17 27 -1z m-50 1 c0 -2 -7 -6 -15 -10 -8 -3 -15 -1 -15
4 0 6 7 10 15 10 8 0 15 -2 15 -4z m-796 -24 c3 -5 -1 -9 -9 -9 -8 0 -12 4 -9
9 3 4 7 8 9 8 2 0 6 -4 9 -8z m1 -72 c3 -5 -1 -10 -10 -10 -9 0 -13 5 -10 10
3 6 8 10 10 10 2 0 7 -4 10 -10z m534 -186 c-7 -8 -18 -13 -26 -10 -21 8 -15
-2 8 -15 16 -8 20 -8 14 0 -9 15 41 7 63 -11 10 -7 14 -9 10 -4 -8 9 40 56 56
55 6 0 6 -3 -2 -6 -19 -7 -34 -39 -19 -41 59 -8 74 -8 90 0 11 5 17 5 17 -2 0
-5 -5 -10 -12 -10 -28 0 10 -16 47 -19 6 -1 3 -6 -5 -12 -12 -8 -10 -9 7 -4
16 4 25 0 33 -15 8 -15 17 -19 31 -15 14 5 20 2 18 -7 -3 -27 2 -38 18 -38 15
0 14 2 -3 15 -10 8 -14 15 -7 15 21 0 40 -45 22 -56 -5 -3 -9 -10 -9 -16 0 -7
6 -6 15 2 11 9 15 9 15 1 0 -7 4 -10 8 -7 5 3 8 -10 7 -29 -1 -19 1 -32 5 -30
4 3 17 -4 29 -14 15 -13 18 -20 9 -23 -10 -4 -10 -8 1 -22 8 -9 11 -19 7 -23
-3 -3 2 -16 11 -27 15 -17 15 -18 1 -8 -9 7 -18 9 -20 5 -3 -4 -4 -3 -2 3 1 6
-4 11 -11 11 -10 0 -11 -5 -4 -19 6 -10 14 -16 20 -13 5 4 9 1 9 -5 0 -6 5 -8
12 -4 7 4 8 3 4 -5 -4 -6 -12 -9 -17 -6 -5 4 -9 -1 -9 -10 0 -9 -4 -13 -10
-10 -5 3 -10 1 -10 -4 0 -15 27 -14 33 2 4 9 6 9 6 -1 1 -7 -6 -15 -14 -18
-14 -6 -13 -8 1 -19 14 -9 14 -14 4 -20 -9 -5 -11 -4 -6 3 4 7 3 12 -2 12 -6
0 -13 -7 -16 -16 -3 -8 -2 -12 4 -9 6 3 10 2 10 -4 0 -5 -5 -13 -10 -16 -6 -4
-7 -12 -3 -18 11 -18 12 -36 2 -43 -12 -7 -12 -24 1 -24 6 0 9 3 8 8 -3 8 5
12 24 12 7 0 3 -7 -9 -15 -12 -9 -20 -23 -18 -33 2 -11 -1 -25 -5 -33 -6 -8
-4 -19 5 -29 15 -16 10 -60 -7 -60 -5 0 -6 5 -2 12 4 7 3 8 -5 4 -9 -6 -9 -11
-1 -21 7 -8 9 -19 5 -24 -4 -7 1 -9 12 -5 13 4 15 3 5 -4 -8 -5 -14 -13 -14
-18 1 -5 -9 -15 -21 -22 -15 -9 -16 -12 -4 -8 11 3 15 2 12 -4 -3 -6 0 -10 7
-10 8 0 6 -5 -5 -11 -9 -6 -14 -15 -11 -21 5 -7 2 -8 -6 -3 -10 6 -12 4 -7 -8
4 -11 2 -14 -9 -10 -12 4 -12 8 -2 22 7 9 18 19 23 23 6 5 6 8 -2 8 -12 0 -56
-56 -59 -76 -1 -8 5 -10 14 -7 14 4 14 3 3 -5 -8 -6 -10 -15 -5 -23 6 -10 3
-10 -11 1 -17 14 -18 13 -12 -10 6 -24 5 -24 -8 -6 -11 15 -15 16 -15 5 0 -8
6 -21 13 -29 6 -8 1 -6 -12 5 -20 16 -23 17 -18 4 8 -24 -13 -42 -32 -26 -12
9 -13 9 -7 0 4 -7 2 -13 -3 -13 -6 0 -11 -4 -11 -10 0 -5 6 -8 13 -6 6 1 9 1
4 -1 -4 -3 -4 -10 0 -16 4 -7 -1 -6 -10 2 -11 8 -17 9 -17 3 0 -7 -7 -9 -17
-5 -10 4 -14 2 -9 -5 3 -6 1 -14 -5 -18 -8 -4 -9 -3 -5 4 4 7 3 12 -3 12 -6 0
-8 8 -4 18 7 18 5 17 -17 -12 -13 -18 -13 -19 0 -11 13 8 13 7 1 -8 -8 -10
-16 -15 -19 -12 -3 3 -11 0 -18 -6 -10 -9 -15 -7 -20 4 -3 9 -12 18 -20 21 -9
3 -12 1 -9 -4 3 -6 -1 -10 -10 -10 -9 0 -13 -4 -10 -10 3 -5 1 -10 -4 -10 -6
0 -11 7 -11 15 0 8 5 15 11 15 5 0 7 5 3 11 -4 8 -12 3 -20 -12 -9 -16 -14
-19 -14 -9 -1 10 -3 11 -7 3 -2 -7 -9 -13 -14 -13 -4 0 -7 6 -5 13 1 6 1 9 -1
4 -3 -4 -10 -4 -15 -1 -7 4 -8 2 -4 -4 4 -7 2 -12 -4 -12 -6 0 -8 -5 -4 -12 6
-10 4 -10 -7 -3 -17 12 -39 13 -58 1 -10 -7 -12 -6 -6 4 6 10 4 12 -9 7 -16
-6 -49 21 -52 43 -1 6 -3 11 -4 13 -7 7 -6 66 1 61 4 -2 7 -10 5 -17 -1 -7 -1
-9 1 -4 3 4 10 4 16 0 7 -4 6 1 -2 10 -11 14 -11 20 0 34 11 13 11 17 1 20 -6
3 -9 10 -5 16 9 14 12 60 4 51 -3 -3 -6 -11 -6 -17 0 -5 -7 -12 -15 -14 -9 -3
-11 -1 -5 4 13 11 20 57 7 49 -12 -7 -10 13 1 32 5 7 3 12 -5 13 -10 0 -10 2
0 6 18 7 15 34 -5 49 -17 13 -17 14 -1 8 13 -5 16 -1 13 15 -2 12 0 19 5 16 5
-3 7 -14 5 -24 -2 -10 1 -24 6 -32 10 -17 5 46 -6 74 -6 15 -10 16 -17 5 -8
-10 -9 -10 -5 2 2 8 9 16 15 16 7 1 15 2 18 3 3 0 -8 13 -23 27 -15 15 -20 21
-10 14 16 -12 18 -11 15 13 -2 14 -7 29 -11 33 -10 11 -8 24 4 24 5 0 7 -5 3
-12 -4 -7 -3 -8 4 -4 7 4 10 -1 7 -14 -2 -11 0 -22 5 -25 4 -3 7 3 5 12 -1 10
2 24 8 31 8 10 7 12 -3 10 -8 -2 -16 6 -18 17 -2 11 -12 25 -21 32 -15 12 -15
13 1 7 13 -5 16 -1 13 15 -2 12 0 19 5 16 5 -3 7 -14 5 -24 -2 -10 1 -24 6
-32 10 -17 5 46 -6 74 -6 15 -10 16 -17 5 -8 -10 -9 -10 -5 2 2 8 9 16 15 16
7 1 15 2 18 3 3 0 -8 13 -23 27 -15 15 -20 21 -10 14 16 -12 18 -11 15 11 -2
13 -7 30 -11 37 -5 6 -5 18 0 25 12 18 10 31 -7 45 -13 10 -12 11 4 5 13 -4
17 -3 12 5 -12 20 -17 62 -7 62 6 0 8 -9 6 -20 -2 -11 -1 -18 4 -16 4 3 7 -11
6 -30 -1 -18 1 -34 5 -34 3 0 6 18 6 40 0 22 -4 40 -9 40 -4 0 -5 6 0 13 14
23 11 38 -10 47 -17 7 -18 9 -4 9 18 1 25 31 6 31 -5 0 -7 -4 -4 -10 3 -5 1
-10 -4 -10 -11 0 -10 21 2 50 13 31 12 55 -1 52 -8 -1 -10 2 -7 8 5 8 16 5 33
-6 21 -13 24 -14 15 -2 -7 8 -9 19 -5 23 4 5 1 5 -5 1 -7 -4 -13 -2 -13 3 0
15 6 14 34 -4 19 -13 23 -13 23 -1 0 8 -5 13 -11 12 -6 -2 -8 -1 -3 1 4 3 5 9
2 14 -4 5 1 6 9 3 9 -3 16 -12 16 -19 0 -7 7 -15 15 -19 13 -5 14 -2 4 15 -6
11 -8 23 -5 27 3 3 6 0 6 -8 0 -10 4 -10 17 1 14 12 16 12 9 0 -6 -9 -5 -12 5
-9 8 3 13 11 11 17 -1 7 2 10 8 6 8 -5 7 -11 -1 -21z m51 5 c0 -15 -18 -19
-23 -6 -3 8 1 14 9 14 8 0 14 -4 14 -8z m16 -17 c-17 -16 -18 -16 -5 5 7 12
15 20 18 17 3 -2 -3 -12 -13 -22z m84 -3 c0 -8 4 -8 14 0 9 8 16 8 20 2 10
-16 -5 -19 -66 -12 -9 1 -8 4 2 11 20 13 30 12 30 -1z m542 -6 c-6 -3 -9 -10
-6 -15 4 -7 2 -8 -5 -4 -9 6 -9 11 0 22 6 8 15 12 18 8 3 -4 0 -9 -7 -11z
m-451 -7 c-9 -11 -9 -15 1 -19 7 -3 3 -4 -9 -4 -21 1 -21 2 -6 19 19 21 31 24
14 4z m64 -55 c3 -5 2 -12 -3 -15 -5 -3 -9 1 -9 9 0 17 3 19 12 6z m495 -79
c-10 -4 -9 -6 0 -12 8 -5 3 -7 -14 -7 -24 2 -25 3 -9 15 13 9 14 12 2 13 -8 1
-18 1 -22 0 -5 -1 -6 3 -2 8 4 7 15 6 31 -1 15 -7 21 -14 14 -16z m-943 -26
c0 -8 -6 -12 -15 -9 -11 5 -11 7 0 14 7 5 13 9 14 9 0 0 1 -6 1 -14z m558 -26
c-3 -5 0 -10 7 -11 10 0 10 -2 0 -6 -6 -2 -9 -10 -6 -15 4 -6 2 -8 -4 -5 -5 4
-9 15 -7 25 5 23 4 22 11 22 3 0 2 -4 -1 -10z m-950 -120 c3 -5 -1 -10 -10
-10 -9 0 -13 5 -10 10 3 6 8 10 10 10 2 0 7 -4 10 -10z m1020 -119 c3 -5 2
-12 -3 -15 -5 -3 -9 1 -9 9 0 17 3 19 12 6z m-21 -67 c3 -8 2 -12 -4 -9 -6 3
-10 10 -10 16 0 14 7 11 14 -7z m4 -30 c2 -1 -5 -5 -15 -8 -9 -4 -14 -4 -10 0
4 4 1 14 -6 23 -11 14 -10 15 8 1 11 -8 21 -15 23 -16z m399 -34 c2 -13 -1
-19 -8 -15 -6 4 -8 13 -5 20 2 7 0 18 -5 24 -6 8 -5 8 3 1 6 -5 13 -19 15 -30z
m-397 -45 c0 -2 -6 -5 -13 -8 -8 -3 -14 1 -14 8 0 7 6 11 14 8 7 -3 13 -6 13
-8z m-3 -29 c0 -8 -6 -12 -15 -9 -11 5 -11 7 0 14 7 5 13 9 14 9 0 0 1 -6 1
-14z m-6 -33 c13 -17 13 -17 -6 -3 -11 8 -22 16 -24 17 -2 2 0 3 6 3 6 0 17
-8 24 -17z m-996 -123 c3 -5 -1 -10 -10 -10 -9 0 -13 5 -10 10 3 6 8 10 10 10
2 0 7 -4 10 -10z m909 -98 c3 -5 -1 -9 -9 -9 -8 0 -12 4 -9 9 3 4 7 8 9 8 2 0
6 -4 9 -8z m-522 -14 c-8 -8 -9 -15 -1 -25 7 -7 9 -13 5 -13 -3 0 -9 -1 -13
-2 -12 -5 -12 36 0 44 18 11 23 10 9 -4z m955 -4 c-3 -3 -12 -4 -19 -1 -8 3
-5 6 6 6 11 1 17 -2 13 -5z m-153 -230 c3 -8 2 -12 -4 -9 -6 3 -10 10 -10 16
0 14 7 11 14 -7z m-44 -59 c0 -2 -6 -5 -13 -8 -8 -3 -14 1 -14 8 0 7 6 11 14
8 7 -3 13 -6 13 -8z m-1145 -35 c3 -5 -1 -10 -10 -10 -9 0 -13 5 -10 10 3 6 8
10 10 10 2 0 7 -4 10 -10z m-1 -126 c5 -14 4 -15 -9 -4 -17 14 -19 20 -6 20 5
0 12 -7 15 -16z m815 2 c9 -10 8 -15 -2 -19 -8 -3 -13 3 -13 14 0 23 0 23 15
5z m-579 -29 c0 -2 -8 -3 -18 -3 -10 0 -19 6 -19 13 0 8 6 9 19 2 10 -5 18
-11 18 -12z"/>
<path d="M972 1794 c-7 -8 -8 -14 -3 -14 10 0 25 19 20 25 -2 1 -10 -3 -17
-11z"/>
<path d="M1455 1720 c-3 -6 1 -7 9 -4 18 7 21 14 7 14 -6 0 -13 -4 -16 -10z"/>
<path d="M1526 1612 c-3 -5 1 -9 9 -9 8 0 12 4 9 9 -3 4 -7 8 -9 8 -2 0 -6 -4
-9 -8z"/>
<path d="M1530 1581 c0 -6 6 -11 13 -11 8 0 7 -4 -3 -10 -13 -8 -12 -10 3 -10
21 0 22 13 2 30 -10 9 -15 9 -15 1z"/>
<path d="M965 1570 c-4 -6 -1 -18 7 -27 7 -9 12 -18 10 -20 -2 -3 -2 -6 0 -8
2 -3 4 6 4 20 0 13 -4 21 -10 18 -5 -4 -7 1 -3 10 7 19 2 23 -8 7z"/>
<path d="M1535 1180 c-3 -5 -2 -10 4 -10 5 0 13 5 16 10 3 6 2 10 -4 10 -5 0
-13 -4 -16 -10z"/>
<path d="M1527 1089 c7 -7 15 -10 18 -7 3 3 -2 9 -12 12 -14 6 -15 5 -6 -5z"/>
<path d="M975 1082 c3 -3 0 -11 -5 -17 -7 -9 -6 -16 4 -24 12 -10 14 -9 11 6
-1 10 1 23 6 29 5 7 3 11 -6 11 -8 0 -13 -3 -10 -5z"/>
<path d="M1467 1039 c7 -7 15 -10 18 -7 3 3 -2 9 -12 12 -14 6 -15 5 -6 -5z"/>
<path d="M1387 885 c3 -8 9 -12 14 -9 12 7 11 11 -5 17 -10 4 -13 1 -9 -8z"/>
<path d="M1337 879 c7 -7 15 -10 18 -7 3 3 -2 9 -12 12 -14 6 -15 5 -6 -5z"/>
<path d="M965 861 c-3 -5 -1 -12 5 -16 6 -4 8 -10 5 -15 -9 -15 27 -34 71 -35
24 -1 44 1 44 5 0 4 -15 8 -32 8 -18 0 -42 3 -53 5 -11 3 -22 6 -25 6 -3 1 2
6 10 11 9 6 11 10 3 10 -7 0 -10 7 -7 15 7 16 -11 21 -21 6z"/>
<path d="M1253 815 c-17 -19 -16 -30 0 -16 8 6 17 8 21 4 4 -4 4 0 0 10 -7 20
-6 20 -21 2z"/>
<path d="M990 2199 c0 -5 5 -7 10 -4 6 3 10 8 10 11 0 2 -4 4 -10 4 -5 0 -10
-5 -10 -11z"/>
<path d="M1090 2200 c0 -5 5 -10 11 -10 5 0 7 5 4 10 -3 6 -8 10 -11 10 -2 0
-4 -4 -4 -10z"/>
<path d="M1266 2198 c3 -4 14 -6 24 -5 31 5 32 13 1 12 -16 0 -27 -3 -25 -7z"/>
<path d="M1513 2143 c9 -2 15 -8 12 -13 -3 -5 -1 -11 4 -14 5 -4 13 -1 17 5 8
13 -14 29 -36 28 -11 -1 -10 -3 3 -6z"/>
<path d="M1597 2106 c-3 -8 -2 -18 3 -21 13 -8 20 9 11 24 -6 10 -10 9 -14 -3z"/>
<path d="M1760 1960 c8 -5 20 -10 25 -10 6 0 3 5 -5 10 -8 5 -19 10 -25 10 -5
0 -3 -5 5 -10z"/>
<path d="M559 1848 c-5 -18 -6 -38 -1 -34 7 8 12 36 6 36 -2 0 -4 -1 -5 -2z"/>
<path d="M559 1648 c-10 -32 2 -61 15 -39 4 5 2 12 -4 16 -6 4 -8 11 -5 16 4
5 4 9 1 9 -3 0 -6 -1 -7 -2z"/>
<path d="M2015 1420 c-3 -5 -1 -10 4 -10 6 0 11 5 11 10 0 6 -2 10 -4 10 -3 0
-8 -4 -11 -10z"/>
<path d="M1993 1381 c-9 -15 -8 -21 9 -36 20 -17 21 -17 13 1 -4 11 -7 27 -7
37 1 21 0 21 -15 -2z"/>
<path d="M559 1368 c-5 -18 -6 -38 -1 -34 7 8 12 36 6 36 -2 0 -4 -1 -5 -2z"/>
<path d="M1975 1204 c-9 -9 -13 -19 -10 -23 4 -3 11 2 16 12 6 9 15 14 21 11
7 -4 8 -2 4 4 -9 15 -11 15 -31 -4z"/>
<path d="M1990 1179 c0 -5 5 -7 10 -4 6 3 10 8 10 11 0 2 -4 4 -10 4 -5 0 -10
-5 -10 -11z"/>
<path d="M559 1168 c-10 -32 2 -61 15 -39 4 5 2 12 -4 16 -6 4 -8 11 -5 16 4
5 4 9 1 9 -3 0 -6 -1 -7 -2z"/>
<path d="M1940 1020 c0 -5 5 -10 11 -10 5 0 7 5 4 10 -3 6 -8 10 -11 10 -2 0
-4 -4 -4 -10z"/>
<path d="M1899 934 c-1 -2 -2 -7 -3 -11 -1 -5 -5 -14 -9 -20 -5 -7 -3 -21 2
-30 9 -16 10 -15 8 6 -1 17 5 28 21 37 23 11 23 12 3 17 -12 3 -22 3 -22 1z"/>
<path d="M559 888 c-5 -18 -6 -38 -1 -34 7 8 12 36 6 36 -2 0 -4 -1 -5 -2z"/>
<path d="M1670 642 c0 -5 7 -9 15 -9 8 0 12 4 9 9 -3 4 -9 8 -15 8 -5 0 -9 -4
-9 -8z"/>
<path d="M1590 578 c0 -3 9 -6 20 -5 11 1 20 5 20 9 0 3 -9 6 -20 5 -11 -1
-20 -5 -20 -9z"/>
<path d="M750 475 c0 -8 4 -15 10 -15 5 0 7 7 4 15 -4 8 -8 15 -10 15 -2 0 -4
-7 -4 -15z"/>
<path d="M1157 470 c-10 -12 -10 -13 3 -4 8 6 23 10 33 9 9 -2 17 1 17 5 0 14
-40 7 -53 -10z"/>
<path d="M1306 477 c3 -10 9 -15 12 -12 3 3 0 11 -7 18 -10 9 -11 8 -5 -6z"/>
</g>
</svg>
